Coordinates
version=1
nRows=17
nColumns=40
inDegrees=yes

Units are S.I. units (second, meters, Newtons, ...)
Angles are in degrees.

endheader
time	pelvis_tilt	pelvis_list	pelvis_rotation	pelvis_tx	pelvis_ty	pelvis_tz	hip_flexion_r	hip_adduction_r	hip_rotation_r	knee_angle_r	knee_angle_r_beta	ankle_angle_r	subtalar_angle_r	mtp_angle_r	hip_flexion_l	hip_adduction_l	hip_rotation_l	knee_angle_l	knee_angle_l_beta	ankle_angle_l	subtalar_angle_l	mtp_angle_l	lumbar_extension	lumbar_bending	lumbar_rotation	arm_flex_r	arm_add_r	arm_rot_r	elbow_flex_r	pro_sup_r	wrist_flex_r	wrist_dev_r	arm_flex_l	arm_add_l	arm_rot_l	elbow_flex_l	pro_sup_l	wrist_flex_l	wrist_dev_l
     11.78500000	     -0.67926997	      0.69207414	     -1.63135329	      0.84815004	      0.92727284	      0.42097455	     26.75876566	     -7.40976269	    -14.08874871	     19.66133577	     19.66133577	      4.11248474	     -0.06955887	      7.61211762	     -2.04572862	      2.24323251	    -14.43216361	     10.16297394	     10.16297394	     15.59783228	     -1.13894465	    -11.81318701	     -8.95943514	     -0.55848265	      0.74718267	    -19.66920214	    -13.96832451	     -4.92368268	     24.88174627	     46.75863398	      0.00000000	      0.00000000	     19.90874085	    -12.88362608	     -6.83687251	     71.31637317	     47.25441478	      0.00000000	      0.00000000
     11.79707143	     -0.85292199	      0.70576251	     -1.64472175	      0.84871438	      0.92609304	      0.42223137	     26.63676121	     -7.17344660	    -14.02943753	     19.72611668	     19.72611668	      4.03108755	      0.04013944	      7.62727786	     -2.39291161	      2.17833303	    -14.34784314	     10.19838697	     10.19838697	     15.89025563	     -1.16115539	    -11.90901535	     -8.71860315	     -0.69936116	      0.71934167	    -19.73221397	    -13.99318107	     -4.93913960	     24.87158679	     46.75960359	      0.00000000	      0.00000000	     19.91069317	    -12.90169945	     -6.85311949	     71.34433877	     47.25624581	      0.00000000	      0.00000000
     11.80914286	     -0.86250004	      0.47600293	     -1.63947479	      0.84971606	      0.92514248	      0.42361672	     26.16679695	     -6.76366606	    -14.29281145	     19.89971925	     19.89971925	      3.86064540	      0.48473182	      6.59850561	     -2.83708772	      1.76523885	    -14.62462609	     10.56152625	     10.56152625	     17.00307134	     -0.38857197	    -10.90659644	     -8.75013127	     -0.44442608	      0.36614820	    -19.91509613	    -14.20438352	     -5.67009174	     25.56743406	     46.77295081	      0.00000000	      0.00000000	     19.02762395	    -13.13756628	     -7.67337138	     72.46116735	     47.34234700	      0.00000000	      0.00000000
     11.82121429	     -0.99498037	      0.31756836	     -1.58655843	      0.85066462	      0.92408797	      0.42501275	     25.91804158	     -6.42069264	    -14.15728133	     20.40449161	     20.40449161	      3.91450169	      0.33008478	      6.40580450	     -3.24629114	      1.49346357	    -14.49034803	     10.62292781	     10.62292781	     17.38816777	     -0.43589931	    -10.93741858	     -8.57997969	     -0.31298522	      0.42130405	    -19.87488772	    -14.21481665	     -5.69562351	     25.57547404	     46.77419495	      0.00000000	      0.00000000	     18.77706103	    -13.13543624	     -7.68241625	     72.32875918	     47.34005875	      0.00000000	      0.00000000
     11.83328571	     -1.04410200	      0.17739058	     -1.48567043	      0.85166777	      0.92309042	      0.42648338	     25.74577182	     -6.11692833	    -13.72481062	     21.33653920	     21.33653920	      3.93160075	     -0.49675119	      5.80229041	     -3.63864677	      1.19456315	    -14.34776039	     10.90933632	     10.90933632	     17.83773546	     -0.42658654	    -10.64671893	     -8.49707561	     -0.18834095	      0.24914251	    -19.63371505	    -14.36075472	     -5.80707169	     25.67705630	     46.77833441	      0.00000000	      0.00000000	     18.45252613	    -13.26169026	     -7.74623061	     71.92689854	     47.33866264	      0.00000000	      0.00000000
     11.84535714	     -1.18891752	     -0.03924223	     -1.33229123	      0.85277998	      0.92216763	      0.42817529	     25.34401321	     -5.57644974	    -13.03455168	     21.58696046	     21.58696046	      2.81928105	     -2.15717287	      2.38835374	     -3.68739141	      0.64545538	    -14.68449491	     11.82516550	     11.82516550	     19.58288514	      0.68790190	     -7.84135034	     -8.28565539	     -0.01197733	      0.15218697	    -19.20899520	    -14.26436023	     -6.33334844	     25.66545075	     46.79668867	      0.00000000	      0.00000000	     18.17087113	    -13.16259576	     -8.08833993	     71.05059638	     47.36816897	      0.00000000	      0.00000000
     11.85742857	     -1.23276226	     -0.23851994	     -1.13781506	      0.85403045	      0.92146179	      0.42964727	     25.05569695	     -5.30642909	    -12.88426291	     22.42168590	     22.42168590	      3.13588768	     -2.65440022	      2.01497052	     -4.11142981	      0.26819000	    -14.48626864	     12.04535563	     12.04535563	     19.81609358	      0.63660152	     -7.75516152	     -8.19518999	      0.21393658	      0.06861095	    -18.77625060	    -14.31706814	     -6.38681084	     25.84723147	     46.79490689	      0.00000000	      0.00000000	     17.66980430	    -13.17985310	     -7.99165882	     70.59593082	     47.35208958	      0.00000000	      0.00000000
     11.86950000	     -1.40594295	     -0.43422967	     -0.92639096	      0.85513746	      0.92075516	      0.43141277	     24.90336621	     -4.91748027	    -12.32420598	     23.11883471	     23.11883471	      3.32892581	     -3.87031979	      1.52348741	     -4.20173597	     -0.18570473	    -14.22851324	     12.62811697	     12.62811697	     20.20931168	      0.52027105	     -7.22587787	     -7.98910573	      0.33678123	     -0.30081628	    -17.98772763	    -14.28883421	     -6.46619875	     26.16000195	     46.78905418	      0.00000000	      0.00000000	     17.13581422	    -13.41168961	     -7.90157203	     69.46716308	     47.32723526	      0.00000000	      0.00000000
     11.88157143	     -1.41813743	     -0.70677132	     -0.71366468	      0.85643987	      0.92054366	      0.43315833	     24.50891971	     -4.55235311	    -12.22323602	     23.70450048	     23.70450048	      3.74959255	     -4.42327346	      1.19025486	     -4.53942121	     -0.70736479	    -14.00726385	     13.06193153	     13.06193153	     20.33279233	      0.41044642	     -6.96567598	     -7.99224615	      0.59998156	     -0.23147049	    -17.37220169	    -14.24835425	     -6.47151752	     26.37193259	     46.78396975	      0.00000000	      0.00000000	     16.55467360	    -13.19207812	     -7.76615879	     68.82571826	     47.30411405	      0.00000000	      0.00000000
     11.89364286	     -1.61218295	     -0.99094859	     -0.43633322	      0.85742036	      0.92028458	      0.43512662	     24.29577924	     -4.04794263	    -11.73054092	     24.10371084	     24.10371084	      3.97706690	     -5.80347247	      0.83504548	     -4.24826951	     -1.38473186	    -13.72098449	     14.29713610	     14.29713610	     20.82702421	      0.19357282	     -6.08820061	     -7.75533548	      0.84889809	     -0.64576671	    -16.28760738	    -14.23351367	     -6.49011072	     26.72459717	     46.77338265	      0.00000000	      0.00000000	     16.12035163	    -13.40510628	     -7.66225336	     66.84426728	     47.26528954	      0.00000000	      0.00000000
     11.90571429	     -1.70521395	     -1.29503214	     -0.19680572	      0.85852785	      0.92045005	      0.43719716	     23.92172535	     -3.57031354	    -11.51252047	     24.38426976	     24.38426976	      4.31090512	     -6.68272079	      0.46964042	     -4.04431807	     -2.11493082	    -13.59513271	     15.59163239	     15.59163239	     21.31816533	      0.21132292	     -4.97527528	     -7.63261972	      1.13241360	     -0.60899755	    -15.35384297	    -14.17393359	     -6.43847606	     26.94919163	     46.75846305	      0.00000000	      0.00000000	     15.85573953	    -13.18127438	     -7.45998436	     64.75322469	     47.21941597	      0.00000000	      0.00000000
     11.91778571	     -1.77590121	     -1.58322411	      0.03706068	      0.85950750	      0.92087345	      0.43937888	     23.48770429	     -3.13067289	    -11.47760334	     24.54985736	     24.54985736	      4.72790566	     -7.26443537	      0.27375091	     -3.69790471	     -2.87051788	    -13.41445405	     17.13906996	     17.13906996	     21.54092212	     -0.00337756	     -4.28832367	     -7.57209511	      1.36712335	     -0.61559429	    -14.27026731	    -14.09516173	     -6.39867983	     27.38011440	     46.73761727	      0.00000000	      0.00000000	     15.44883400	    -13.03008655	     -7.21527427	     62.71238929	     47.16967013	      0.00000000	      0.00000000
     11.92985714	     -1.76897718	     -1.87082870	      0.26664945	      0.86047343	      0.92161090	      0.44166398	     22.90350365	     -2.69866285	    -11.57169472	     24.58813228	     24.58813228	      5.22363646	     -7.60060806	      0.16547199	     -3.28395811	     -3.65466211	    -13.12101418	     18.92354834	     18.92354834	     21.44454620	     -0.50512857	     -4.12722279	     -7.65232361	      1.58322650	     -0.62659738	    -13.08997362	    -14.01984846	     -6.37030190	     27.92593796	     46.71692954	      0.00000000	      0.00000000	     14.93371674	    -12.92404248	     -6.99998931	     60.99031497	     47.12533277	      0.00000000	      0.00000000
     11.94192857	     -1.86648625	     -2.14251655	      0.47622501	      0.86127462	      0.92234355	      0.44413867	     22.40750324	     -2.23833991	    -11.63008211	     24.52192435	     24.52192435	      5.66391648	     -8.03569797	      0.23396490	     -2.47114602	     -4.53074678	    -12.93190406	     21.22655534	     21.22655534	     21.32865548	     -0.94231013	     -3.95293378	     -7.48959216	      1.75971018	     -0.48122843	    -11.97492507	    -13.96269685	     -6.21358672	     28.67280511	     46.66616125	      0.00000000	      0.00000000	     15.04594589	    -12.62253932	     -6.63572642	     57.34290591	     47.04959008	      0.00000000	      0.00000000
     11.95400000	     -1.91673170	     -2.44220072	      0.70181723	      0.86187714	      0.92326942	      0.44661067	     21.74752247	     -1.76313133	    -11.82960324	     24.23653517	     24.23653517	      6.14524133	     -8.01080452	      0.32422012	     -1.49757046	     -5.42636488	    -12.36257090	     23.80273931	     23.80273931	     20.68705627	     -1.86372309	     -4.70131996	     -7.50300275	      2.02203378	     -0.07374394	    -11.03729370	    -13.95814461	     -6.07039499	     29.93836853	     46.58227460	      0.00000000	      0.00000000	     15.28789631	    -12.25936481	     -6.12805267	     53.66803021	     46.96435884	      0.00000000	      0.00000000
     11.96607143	     -1.91425057	     -2.77041180	      0.95134989	      0.86232638	      0.92427114	      0.44912080	     20.99605871	     -1.28182248	    -12.26140690	     23.87523762	     23.87523762	      6.53139431	     -7.84200575	      0.26488933	     -0.29206416	     -6.40029378	    -11.70162083	     26.85210010	     26.85210010	     19.84824995	     -2.98668787	     -5.37063310	     -7.61951277	      2.25965385	     -0.16111646	     -9.59300759	    -13.92526660	     -6.10692867	     30.84829685	     46.55350035	      0.00000000	      0.00000000	     14.46282514	    -12.20690033	     -5.90856954	     52.21886484	     46.92064997	      0.00000000	      0.00000000
     11.97814286	     -1.99960239	     -3.01435809	      1.16650773	      0.86263799	      0.92509480	      0.45167653	     20.33393643	     -0.85307650	    -12.55299135	     23.47686705	     23.47686705	      6.90264213	     -7.69565176	      0.14911206	      1.11861750	     -7.21469158	    -10.77981875	     29.89213962	     29.89213962	     17.55482956	     -5.03207079	     -8.78526289	     -7.51498087	      2.42209028	      0.18233810	     -8.74590195	    -14.04327293	     -5.76136401	     33.03724278	     46.41295989	      0.00000000	      0.00000000	     15.11327820	    -11.75547205	     -5.43517604	     47.02583420	     46.82644077	      0.00000000	      0.00000000
